# Blender 4.5.2 LTS
# www.blender.org
mtllib larry.mtl
o Cube.002
v -0.900889 -1.188453 0.421505
v -0.900889 0.726850 0.421505
v -0.900889 -1.188453 -0.421505
v -0.900889 0.726850 -0.421505
v 0.886127 -1.188453 0.421505
v 0.886127 0.726850 0.421505
v 0.886127 -1.188453 -0.421505
v 0.886127 0.726850 -0.421505
v 0.439926 -1.188453 -0.572802
v -0.439926 -1.188453 -0.572802
v -0.439926 0.726850 -0.572802
v 0.439926 0.726850 -0.572802
v -0.439926 -1.188453 0.572802
v 0.439926 -1.188453 0.572802
v 0.439926 0.726850 0.572802
v -0.439926 0.726850 0.572802
v -0.924686 -1.746825 -0.145901
v -0.924686 -1.746825 0.145901
v -0.750797 -1.746825 -0.198271
v 0.998497 -1.746825 0.145901
v 0.909924 -1.746825 -0.145901
v 0.750797 -1.746825 0.198271
v 0.750797 -1.746825 -0.198271
v -0.750797 -1.746825 0.198271
v -0.972594 -1.188453 0.000000
v -0.972594 0.726850 0.000000
v 0.972594 -1.188453 0.000000
v 0.972594 0.726850 0.000000
v -0.439926 -1.188453 0.000000
v 0.439926 -1.188453 0.000000
v -0.998497 -1.746825 0.000000
v 0.998497 -1.746825 0.000000
v -0.750797 -1.746825 0.000000
v 0.750797 -1.746825 0.000000
v -0.251569 0.982916 0.300564
v -0.251569 0.982916 -0.300564
v 0.243919 0.982916 0.300564
v 0.243919 0.982916 -0.300564
v -0.123757 0.982916 -0.408451
v 0.120201 0.982916 -0.408451
v 0.120201 0.982916 0.408451
v -0.123757 0.982916 0.408451
v -0.271450 0.982916 0.000000
v 0.267894 0.982916 0.000000
v 0.120201 0.982916 0.000000
v -0.123757 0.982916 0.000000
v -0.900889 0.243631 0.421505
v -0.900889 0.243631 -0.421505
v 0.886127 0.243631 -0.421505
v 0.886127 0.243631 0.421505
v 0.439926 0.243631 0.572802
v -0.439926 0.243631 0.572802
v -0.439926 0.243631 -0.572802
v 0.439926 0.243631 -0.572802
v 0.972594 0.243631 0.000000
v -0.972594 0.243631 0.000000
v -1.640478 0.946169 0.257790
v -1.483032 1.284803 0.257790
v -1.560091 1.373883 0.000000
v -1.483032 1.284803 -0.257790
v 1.557225 1.370210 0.000000
v 1.470383 1.266606 0.247072
v 1.470383 1.266606 -0.247072
v -1.640478 0.946169 -0.257790
v 1.628152 0.953362 -0.247072
v 1.628152 0.953362 0.247072
v 1.739044 1.009213 0.000000
v -1.737895 0.991463 0.000000
vn -0.7051 -0.1476 0.6936
vn -0.1504 0.5707 0.8073
vn -0.7051 -0.1476 -0.6936
vn -0.1504 0.5707 -0.8073
vn 0.6995 -0.1327 0.7022
vn 0.1678 0.5742 0.8014
vn 0.6970 -0.1465 -0.7019
vn 0.1678 0.5742 -0.8014
vn -0.0263 -0.5367 -0.8433
vn 0.0318 -0.5366 -0.8432
vn -0.1885 0.3876 -0.9023
vn 0.1937 0.3895 -0.9004
vn 0.0318 -0.5366 0.8432
vn -0.0333 -0.5350 0.8442
vn 0.1937 0.3895 0.9004
vn -0.1885 0.3876 0.9023
vn -0.5621 -0.7160 -0.4140
vn -0.5621 -0.7160 0.4140
vn 0.3174 -0.8203 -0.4758
vn 0.6689 -0.6167 0.4151
vn 0.5426 -0.7262 -0.4222
vn -0.3267 -0.8220 0.4665
vn -0.3121 -0.8191 -0.4813
vn 0.3174 -0.8203 0.4758
vn -1.0000 -0.0093 -0.0000
vn 0.2776 0.9607 -0.0000
vn 0.9992 0.0141 -0.0371
vn -0.2847 0.9586 -0.0000
vn 0.5067 -0.8621 -0.0000
vn -0.5067 -0.8621 -0.0000
vn -0.7988 -0.6016 -0.0000
vn 0.7684 -0.6375 -0.0559
vn -0.1929 0.9553 0.2239
vn -0.1929 0.9553 -0.2239
vn 0.1930 0.9558 0.2217
vn 0.1930 0.9558 -0.2217
vn -0.0575 0.8653 -0.4979
vn 0.0591 0.8651 -0.4981
vn 0.0591 0.8651 0.4981
vn -0.0575 0.8653 0.4979
vn -0.1856 0.9826 -0.0000
vn 0.1871 0.9823 -0.0000
vn -0.0000 1.0000 -0.0000
vn -0.6408 -0.1570 0.7515
vn -0.6408 -0.1570 -0.7515
vn 0.6373 -0.1491 -0.7561
vn 0.6373 -0.1491 0.7561
vn 0.1627 -0.0000 0.9867
vn -0.1579 -0.0000 0.9875
vn -0.1579 -0.0000 -0.9875
vn 0.1627 -0.0000 -0.9867
vn 0.9163 -0.4004 -0.0000
vn -0.9156 -0.4020 -0.0000
vn -0.7449 -0.1886 0.6400
vn -0.0459 0.7888 0.6129
vn -0.2529 0.9675 -0.0000
vn -0.0459 0.7888 -0.6129
vn 0.2503 0.9682 -0.0000
vn 0.0183 0.7807 0.6247
vn 0.0183 0.7807 -0.6247
vn -0.7449 -0.1886 -0.6400
vn 0.7324 -0.1868 -0.6548
vn 0.7324 -0.1868 0.6548
vn 0.9970 -0.0770 -0.0000
vn -0.9940 -0.1097 -0.0000
vt 0.625000 0.625000
vt 0.625000 0.750000
vt 0.616657 0.750000
vt 0.642000 0.228602
vt 0.642000 0.264400
vt 0.608944 0.264400
vt 0.608944 0.228602
vt 0.471554 0.170538
vt 0.471554 0.233647
vt 0.395526 0.306517
vt 0.374963 0.262291
vt 0.432005 0.213021
vt 0.432005 0.243549
vt 0.369186 0.243549
vt 0.369186 0.213021
vt 0.472853 0.349049
vt 0.425351 0.347330
vt 0.418885 0.298103
vt 0.435747 0.298478
vt 0.612716 0.243549
vt 0.624499 0.243549
vt 0.528465 0.259727
vt 0.525197 0.259727
vt 0.551909 0.243549
vt 0.508337 0.259727
vt 0.475091 0.259727
vt 0.457674 0.259727
vt 0.651133 0.259978
vt 0.651133 0.135927
vt 0.734294 0.217038
vt 0.734294 0.259978
vt 0.415767 0.259978
vt 0.651133 0.384028
vt 0.415767 0.384028
vt 0.612716 0.213021
vt 0.551909 0.213021
vt 0.741331 0.228602
vt 0.741331 0.264400
vt 0.707181 0.264400
vt 0.707181 0.228602
vt 0.800555 0.259978
vt 0.800555 0.291575
vt 0.734294 0.302917
vt 0.266345 0.259978
vt 0.332606 0.259978
vt 0.332606 0.302917
vt 0.286090 0.291575
vt 0.611087 0.209032
vt 0.539986 0.209032
vt 0.589523 0.120057
vt 0.628993 0.120057
vt 0.605969 0.343407
vt 0.563504 0.347041
vt 0.589397 0.296315
vt 0.605343 0.295496
vt 0.464334 0.229894
vt 0.411454 0.229894
vt 0.446030 0.177356
vt 0.464334 0.177356
vt 0.517214 0.229894
vt 0.482638 0.177356
vt 0.453359 0.214985
vt 0.379906 0.214985
vt 0.376114 0.126010
vt 0.403823 0.126010
vt 0.415767 0.135927
vt 0.332606 0.217038
vt 0.286090 0.228380
vt 0.776861 0.228380
vt 0.359414 0.243549
vt 0.454964 0.259727
vt 0.693227 0.283370
vt 0.683759 0.283370
vt 0.602538 0.264400
vt 0.656520 0.283370
vt 0.654744 0.283370
vt 0.746643 0.264400
vt 0.790166 0.312334
vt 0.784457 0.305734
vt 0.796121 0.280648
vt 0.806540 0.625000
vt 0.875000 0.625000
vt 0.875000 0.750000
vt 0.806540 0.750000
vt 0.693460 0.625000
vt 0.693460 0.750000
vt 0.693460 0.500000
vt 0.806540 0.500000
vt 0.625000 0.500000
vt 0.875000 0.500000
vt 0.665686 0.283370
vt 0.694700 0.283370
vt 0.517214 0.364640
vt 0.464334 0.364640
vt 0.411454 0.364640
vt 0.707181 0.122510
vt 0.642000 0.122510
vt 0.741331 0.122510
vt 0.551909 0.122547
vt 0.432005 0.122547
vt 0.612716 0.122547
vt 0.369186 0.122547
vt 0.608944 0.122510
vt 0.803338 0.284003
vt 0.629703 0.270145
vt 0.602788 0.323582
vt 0.589933 0.308246
vt 0.613288 0.261877
vt 0.553973 0.281180
vt 0.565661 0.304386
vt 0.559227 0.312062
vt 0.545758 0.285318
vt 0.385462 0.318150
vt 0.362240 0.268206
vt 0.658365 0.208457
vt 0.619055 0.208457
vt 0.619055 0.278201
vt 0.643097 0.273977
vt 0.503447 0.228347
vt 0.503447 0.156817
vt 0.579745 0.208457
vt 0.595013 0.273977
vt 0.619055 0.279856
vt 0.596013 0.274648
vt 0.642097 0.274648
s 1
g Cube.002_Larry
usemtl Larry
f 28/1/28 6/2/6 62/3/59 61/1/58
f 54/4/51 12/5/12 8/6/8 49/7/46
f 47/8/44 2/9/2 58/10/55 57/11/54
f 52/12/49 16/13/16 2/14/2 47/15/44
f 9/16/9 7/17/7 21/18/21 23/19/23
f 6/20/6 28/21/28 44/22/42 37/23/35
f 15/24/15 6/20/6 37/23/35 41/25/39
f 2/14/2 16/13/16 42/26/40 35/27/33
f 30/28/30 9/29/9 23/30/23 34/31/30
f 29/32/29 30/28/30 14/33/14 13/34/13
f 50/35/47 6/20/6 15/24/15 51/36/48
f 51/36/48 15/24/15 16/13/16 52/12/49
f 48/37/45 4/38/4 11/39/11 53/40/50
f 53/40/50 11/39/11 12/5/12 54/4/51
f 34/31/30 32/41/32 20/42/20 22/43/22
f 31/44/31 33/45/29 24/46/24 18/47/18
f 5/48/5 14/49/14 22/50/22 20/51/20
f 3/52/3 10/53/10 19/54/19 17/55/17
f 29/32/29 13/34/13 24/46/24 33/45/29
f 25/56/25 3/57/3 17/58/17 31/59/31
f 27/56/27 5/60/5 20/61/20 32/59/32
f 13/62/13 1/63/1 18/64/18 24/65/24
f 7/57/7 27/56/27 32/59/32 21/58/21
f 1/60/1 25/56/25 31/59/31 18/61/18
f 10/66/10 29/32/29 33/45/29 19/67/19
f 17/68/17 19/67/19 33/45/29 31/44/31
f 23/30/23 21/69/21 32/41/32 34/31/30
f 10/66/10 9/29/9 30/28/30 29/32/29
f 14/33/14 30/28/30 34/31/30 22/43/22
f 26/70/26 2/14/2 35/27/33 43/71/41
f 11/39/11 4/38/4 36/72/34 39/73/37
f 28/74/28 8/6/8 38/75/36 44/76/42
f 2/38/2 26/77/26 59/78/56 58/79/55
f 4/38/4 48/37/45 64/80/61 60/79/57
f 46/81/43 43/82/41 35/83/33 42/84/40
f 44/1/42 45/85/43 41/86/39 37/2/35
f 45/85/43 46/81/43 42/84/40 41/86/39
f 40/87/38 39/88/37 46/81/43 45/85/43
f 38/89/36 40/87/38 45/85/43 44/1/42
f 39/88/37 36/90/34 43/82/41 46/81/43
f 12/5/12 11/39/11 39/73/37 40/91/38
f 8/6/8 12/5/12 40/91/38 38/75/36
f 16/13/16 15/24/15 41/25/39 42/26/40
f 4/38/4 26/77/26 43/92/41 36/72/34
f 1/60/1 47/93/44 56/94/53 25/56/25
f 7/57/7 49/95/46 55/94/52 27/56/27
f 10/96/10 53/40/50 54/4/51 9/97/9
f 3/98/3 48/37/45 53/40/50 10/96/10
f 14/99/14 51/36/48 52/12/49 13/100/13
f 5/101/5 50/35/47 51/36/48 14/99/14
f 13/100/13 52/12/49 47/15/44 1/102/1
f 27/56/27 55/94/52 50/93/47 5/60/5
f 9/97/9 54/4/51 49/7/46 7/103/7
f 25/56/25 56/94/53 48/95/45 3/57/3
f 68/104/65 59/78/56 60/79/57 64/80/61
f 67/105/64 61/106/58 62/107/59 66/108/63
f 65/109/62 63/110/60 61/111/58 67/112/64
f 57/11/54 58/10/55 59/113/56 68/114/65
f 48/115/45 56/116/53 68/117/65 64/118/61
f 49/7/46 8/6/8 63/110/60 65/109/62
f 26/77/26 4/38/4 60/79/57 59/78/56
f 6/119/6 50/120/47 66/108/63 62/107/59
f 8/6/8 28/74/28 61/111/58 63/110/60
f 56/116/53 47/121/44 57/122/54 68/117/65
f 50/121/47 55/116/52 67/123/64 66/124/63
f 55/116/52 49/115/46 65/125/62 67/123/64
o ogmirror.001
v 0.849217 0.988518 0.499355
v 1.000000 2.572600 0.279342
v 0.849217 0.988518 -0.390457
v 1.000000 2.572600 -0.442511
v 0.000000 0.851703 -0.545729
v 0.000000 2.756445 -0.508958
v 0.000000 0.851703 0.545729
v 0.000000 2.808132 0.583055
v 0.998904 1.504813 -0.545729
v 0.998904 1.504813 0.545729
v 0.000000 1.526744 1.000000
v 0.000000 1.526744 -1.000000
v 0.000000 0.851703 0.000000
v 0.000000 2.922847 0.051609
v 1.000000 2.572600 -0.081584
v 0.849217 0.988518 0.054449
v 0.998904 1.504813 0.000000
v 1.173870 1.680121 -0.528783
v 1.173870 1.680121 0.501994
v 0.000000 1.737121 0.931546
v 0.000000 1.728636 -0.919381
v 1.173870 1.680121 -0.013394
v 1.843852 2.717598 -0.081584
v 0.747853 2.618956 -0.459265
v 0.390110 0.914553 0.524426
v 0.582134 0.945489 -0.439291
v 0.566568 2.674687 0.410981
v 0.373415 1.519965 0.859579
v 0.722493 1.513628 -0.728310
v 0.500369 2.747595 -0.015037
v 0.319989 0.903256 0.020517
v 0.362857 1.719502 0.798766
v 0.702067 1.699620 -0.685772
v -0.849217 0.988518 0.499355
v -1.000000 2.572600 0.279342
v -0.849217 0.988518 -0.390457
v -1.000000 2.572600 -0.442511
v -0.998904 1.504813 -0.545729
v -0.998904 1.504813 0.545729
v -1.000000 2.572600 -0.081584
v -0.849217 0.988518 0.054449
v -0.998904 1.504813 0.000000
v -1.173870 1.680121 -0.528783
v -1.173870 1.680121 0.501994
v -1.173870 1.680121 -0.013394
v -2.128661 2.604719 -0.081584
v -0.747853 2.618956 -0.459265
v -0.390110 0.914553 0.524426
v -0.582134 0.945489 -0.439291
v -0.566568 2.674687 0.410981
v -0.373415 1.519965 0.859579
v -0.722493 1.513628 -0.728310
v -0.500369 2.747595 -0.015037
v -0.319989 0.903256 0.020517
v -0.362857 1.719502 0.798766
v -0.702067 1.699620 -0.685772
v 1.564616 2.341965 -0.267968
v 1.478543 2.710026 0.074663
v 1.467563 2.706873 -0.081584
v 1.455904 2.703525 -0.247515
v 1.578061 2.364738 0.149929
v 1.578525 2.365525 -0.054580
v -1.382630 2.620245 -0.081584
v -1.583282 2.203619 0.200338
v -1.583282 2.203619 -0.297623
v -1.590951 2.213426 -0.049303
v -1.421515 2.625087 -0.285006
v -1.421515 2.625087 0.121837
vn 0.5982 -0.6713 0.4377
vn 0.2601 0.7329 0.6286
vn 0.6261 -0.6939 -0.3558
vn 0.2396 0.6669 -0.7056
vn -0.0000 -0.8661 -0.4999
vn -0.0000 0.7517 -0.6595
vn -0.0000 -0.8783 0.4780
vn -0.0000 0.7422 0.6702
vn 0.6960 -0.3935 -0.6006
vn 0.7054 -0.3159 0.6345
vn -0.0000 -0.1071 0.9942
vn -0.0000 -0.1084 -0.9941
vn -0.0000 -1.0000 -0.0000
vn -0.0000 0.9999 -0.0125
vn 0.0054 1.0000 -0.0039
vn 0.6625 -0.7490 -0.0000
vn 0.8611 -0.5084 -0.0000
vn 0.7129 -0.3239 -0.6220
vn 0.7460 -0.2595 0.6133
vn -0.0000 0.3092 0.9510
vn -0.0000 0.3129 -0.9498
vn 0.7907 -0.6122 -0.0000
vn 0.8860 0.4628 -0.0277
vn 0.2937 0.7157 -0.6336
vn 0.2413 -0.8293 0.5040
vn 0.2700 -0.8421 -0.4669
vn 0.3738 0.7179 0.5872
vn 0.3270 -0.1300 0.9361
vn 0.3670 -0.1771 -0.9132
vn 0.2781 0.9601 -0.0313
vn 0.1591 -0.9873 -0.0000
vn 0.3554 0.2394 0.9035
vn 0.3023 0.1965 -0.9327
vn -0.5982 -0.6713 0.4377
vn -0.2850 0.7420 0.6068
vn -0.6261 -0.6939 -0.3558
vn -0.2599 0.6802 -0.6854
vn -0.6960 -0.3935 -0.6006
vn -0.7054 -0.3159 0.6345
vn -0.0832 0.9965 -0.0038
vn -0.6625 -0.7490 -0.0000
vn -0.8611 -0.5084 -0.0000
vn -0.6870 -0.3443 -0.6399
vn -0.7249 -0.2758 0.6312
vn -0.7491 -0.6624 -0.0000
vn -0.9507 0.3092 -0.0227
vn -0.2937 0.7157 -0.6336
vn -0.2413 -0.8293 0.5040
vn -0.2700 -0.8421 -0.4669
vn -0.3738 0.7179 0.5872
vn -0.3270 -0.1300 0.9361
vn -0.3670 -0.1771 -0.9132
vn -0.2781 0.9601 -0.0313
vn -0.1591 -0.9873 -0.0000
vn -0.3554 0.2394 0.9035
vn -0.3023 0.1965 -0.9327
vn 0.7632 -0.2331 -0.6026
vn 0.0907 0.8305 0.5496
vn -0.1535 0.9881 -0.0092
vn 0.1061 0.7896 -0.6044
vn 0.7698 -0.1534 0.6196
vn 0.8300 -0.5578 0.0036
vn 0.0602 0.9982 -0.0000
vn -0.7021 -0.2612 0.6624
vn -0.6769 -0.3455 -0.6499
vn -0.6916 -0.7223 -0.0002
vn -0.1593 0.7858 -0.5975
vn -0.1396 0.8248 0.5479
vt 0.357194 0.165051
vt 0.331438 0.229283
vt 0.421963 0.229283
vt 0.430995 0.165051
vt 0.459484 0.245455
vt 0.453278 0.338910
vt 0.419102 0.334198
vt 0.395536 0.243473
vt 0.505373 0.453501
vt 0.406182 0.472756
vt 0.492230 0.456052
vt 0.459565 0.833274
vt 0.556881 0.874343
vt 0.556881 0.847460
vt 0.446690 0.816189
vt 0.362393 0.792266
vt 0.282784 0.810953
vt 0.284611 0.810524
vt 0.484256 0.545595
vt 0.556881 0.547184
vt 0.565347 0.441859
vt 0.512488 0.229283
vt 0.504796 0.165051
vt 0.475740 0.168794
vt 0.456716 0.226548
vt 0.419251 0.225652
vt 0.439539 0.173168
vt 0.430328 0.464712
vt 0.381339 0.473377
vt 0.478411 0.456208
vt 0.438029 0.830262
vt 0.575202 0.847794
vt 0.575202 0.869013
vt 0.483423 0.846665
vt 0.374440 0.865874
vt 0.340505 0.735230
vt 0.275988 0.826463
vt 0.294550 0.877547
vt 0.486310 0.592354
vt 0.556881 0.596483
vt 0.334249 0.251093
vt 0.419741 0.251093
vt 0.505234 0.251093
vt 0.412909 0.336364
vt 0.446833 0.336266
vt 0.377513 0.333433
vt 0.286551 0.810069
vt 0.357309 0.347507
vt 0.342574 0.310753
vt 0.554642 0.227881
vt 0.554642 0.248405
vt 0.362606 0.542044
vt 0.328577 0.583125
vt 0.391779 0.824350
vt 0.456240 0.463039
vt 0.554642 0.159260
vt 0.554642 0.352886
vt 0.649800 0.245455
vt 0.713748 0.243473
vt 0.690182 0.334198
vt 0.656006 0.338910
vt 0.625321 0.453501
vt 0.638464 0.456052
vt 0.724513 0.472756
vt 0.654197 0.833274
vt 0.667072 0.816189
vt 0.629506 0.545595
vt 0.633545 0.168794
vt 0.669745 0.173168
vt 0.690034 0.225652
vt 0.652569 0.226548
vt 0.643880 0.464712
vt 0.595797 0.456208
vt 0.692869 0.473377
vt 0.712375 0.830262
vt 0.666981 0.846665
vt 0.812630 0.806646
vt 0.891749 0.825218
vt 0.822315 0.819698
vt 0.627453 0.592354
vt 0.413785 0.317442
vt 0.455195 0.316222
vt 0.408430 0.366122
vt 0.372593 0.316222
vt 0.812630 0.806646
vt 0.826069 0.836884
vt 0.905188 0.855456
vt 0.836775 0.792475
vt 0.751156 0.542044
vt 0.785185 0.583125
vt 0.751369 0.792266
vt 0.758624 0.824350
vt 0.674454 0.463039
vt 0.776768 0.816077
vt 0.769240 0.296689
vt 0.843161 0.337463
vt 0.747314 0.339533
vt 0.333533 0.876553
vt 0.331519 0.877188
vt 0.236998 0.881888
vt 0.408430 0.380165
vt 0.233563 0.886457
vt 0.335672 0.875879
vt 0.808350 0.713304
vt 0.304727 0.348938
s 1
g ogmirror.001_Larry
usemtl Larry
f 71/126/68 77/127/74 85/128/82 84/129/81
f 101/130/98 92/131/89 72/132/69 86/133/83
f 99/134/96 84/135/81 69/135/66 93/136/90
f 98/137/95 82/138/79 76/139/73 95/140/92
f 83/141/80 70/141/67 126/142/123 127/143/124
f 93/136/90 96/144/93 79/145/76 75/146/72
f 84/129/81 85/128/82 78/147/75 69/148/66
f 94/149/91 97/150/94 77/151/74 71/152/68
f 94/153/91 71/154/68 84/154/81 99/155/96
f 92/156/89 74/157/71 82/158/79 98/159/95
f 70/160/67 87/161/84 129/162/126 126/163/123
f 100/164/97 95/140/92 76/139/73 88/165/85
f 96/144/93 100/164/97 88/165/85 79/145/76
f 77/127/74 86/166/83 90/167/87 85/128/82
f 85/128/82 90/167/87 87/168/84 78/147/75
f 97/150/94 101/130/98 86/133/83 77/151/74
f 90/167/87 130/169/127 129/170/126 87/168/84
f 86/166/83 125/171/122 130/169/127 90/167/87
f 72/141/69 83/141/80 127/143/124 128/172/125
f 86/133/83 72/132/69 128/173/125 125/174/122
f 80/175/77 89/176/86 101/130/98 97/150/94
f 78/177/75 87/178/84 100/164/97 96/144/93
f 87/178/84 70/141/67 95/140/92 100/164/97
f 72/179/69 92/156/89 98/159/95 83/179/80
f 73/146/70 94/180/91 99/134/96 81/146/78
f 73/181/70 80/175/77 97/150/94 94/149/91
f 69/135/66 78/177/75 96/144/93 93/136/90
f 83/141/80 98/137/95 95/140/92 70/141/67
f 81/146/78 99/134/96 93/136/90 75/146/72
f 89/176/86 74/182/71 92/131/89 101/130/98
f 104/126/101 109/129/106 110/128/107 106/127/103
f 124/183/121 111/184/108 105/185/102 115/186/112
f 122/187/119 116/188/113 102/189/99 109/189/106
f 121/190/118 118/191/115 76/139/73 82/138/79
f 116/188/113 75/146/72 79/145/76 119/192/116
f 109/129/106 102/148/99 107/147/104 110/128/107
f 117/193/114 104/194/101 106/195/103 120/196/117
f 117/197/114 122/198/119 109/199/106 104/199/101
f 115/200/112 121/201/118 82/158/79 74/157/71
f 135/202/132 114/203/111 131/204/128
f 123/205/120 88/165/85 76/139/73 118/191/115
f 119/192/116 79/145/76 88/165/85 123/205/120
f 106/127/103 110/128/107 113/167/110 111/166/108
f 110/128/107 107/147/104 112/168/109 113/167/110
f 120/196/117 106/195/103 111/184/108 124/183/121
f 134/206/131 132/207/129 114/208/111
f 133/209/130 134/206/131 114/208/111
f 131/204/128 114/203/111 136/210/133
f 136/211/133 114/212/111 132/213/129
f 80/175/77 120/196/117 124/183/121 89/176/86
f 107/214/104 119/192/116 123/205/120 112/215/109
f 112/215/109 123/205/120 118/191/115 103/216/100
f 105/217/102 108/217/105 121/201/118 115/200/112
f 73/146/70 81/146/78 122/187/119 117/218/114
f 73/181/70 117/193/114 120/196/117 80/175/77
f 102/189/99 116/188/113 119/192/116 107/214/104
f 108/219/105 103/216/100 118/191/115 121/190/118
f 81/146/78 75/146/72 116/188/113 122/187/119
f 89/176/86 124/183/121 115/186/112 74/182/71
f 133/220/130 114/221/111 135/222/132
f 127/223/124 126/224/123 91/225/88
f 130/169/127 125/171/122 91/226/88
f 129/170/126 130/169/127 91/226/88
f 126/163/123 129/162/126 91/227/88
f 128/228/125 127/223/124 91/225/88
f 103/216/100 136/210/133 132/229/129 112/215/109
f 111/184/108 133/220/130 135/222/132 105/185/102
f 105/216/102 135/202/132 131/204/128 108/219/105
f 108/219/105 131/204/128 136/210/133 103/216/100
f 111/166/108 113/167/110 134/206/131 133/209/130
f 113/167/110 112/168/109 132/207/129 134/206/131
f 125/174/122 128/173/125 91/230/88
